<svg width="159" height="923" viewBox="0 0 159 923" fill="none" xmlns="http://www.w3.org/2000/svg">
<rect x="-388.607" y="-10" width="736.197" height="592.4" rx="76" transform="rotate(42 -388.607 -10)" fill="#580AC7"/>
<path d="M34 538.919C34 548.031 26.3888 555.419 17 555.419C7.61116 555.419 0 548.031 0 538.919C0 529.806 7.61116 522.419 17 522.419C26.3888 522.419 34 529.806 34 538.919Z" fill="#7846C1"/>
<path d="M95 538.919C95 548.031 87.8366 555.419 79 555.419C70.1634 555.419 63 548.031 63 538.919C63 529.806 70.1634 522.419 79 522.419C87.8366 522.419 95 529.806 95 538.919Z" fill="#7846C1"/>
<path d="M51 585.919C51 595.031 43.3888 602.419 34 602.419C24.6112 602.419 17 595.031 17 585.919C17 576.806 24.6112 569.419 34 569.419C43.3888 569.419 51 576.806 51 585.919Z" fill="#7846C1"/>
<path d="M79 633C79 642.389 71.165 650 61.5 650C51.835 650 44 642.389 44 633C44 623.611 51.835 616 61.5 616C71.165 616 79 623.611 79 633Z" fill="#45DDCB"/>
<path d="M114 585.419C114 594.808 106.165 602.419 96.5 602.419C86.835 602.419 79 594.808 79 585.419C79 576.03 86.835 568.419 96.5 568.419C106.165 568.419 114 576.03 114 585.419Z" fill="#45DDCB"/>
</svg>
