<svg width="110" height="278" viewBox="0 0 110 278" fill="none" xmlns="http://www.w3.org/2000/svg">
<path d="M32 16.3529C32 25.3844 24.8366 32.7059 16 32.7059C7.16344 32.7059 0 25.3844 0 16.3529C0 7.32146 7.16344 0 16 0C24.8366 0 32 7.32146 32 16.3529Z" fill="#580AC7"/>
<path d="M32 65.4117C32 74.4431 24.8366 81.7646 16 81.7646C7.16344 81.7646 0 74.4431 0 65.4117C0 56.3802 7.16344 49.0587 16 49.0587C24.8366 49.0587 32 56.3802 32 65.4117Z" fill="#580AC7"/>
<path d="M32 114.471C32 123.502 24.8366 130.824 16 130.824C7.16344 130.824 0 123.502 0 114.471C0 105.439 7.16344 98.1177 16 98.1177C24.8366 98.1177 32 105.439 32 114.471Z" fill="#580AC7"/>
<path d="M32 163.529C32 172.561 24.8366 179.882 16 179.882C7.16344 179.882 0 172.561 0 163.529C0 154.498 7.16344 147.176 16 147.176C24.8366 147.176 32 154.498 32 163.529Z" fill="#580AC7"/>
<path d="M32 212.588C32 221.62 24.8366 228.941 16 228.941C7.16344 228.941 0 221.62 0 212.588C0 203.557 7.16344 196.235 16 196.235C24.8366 196.235 32 203.557 32 212.588Z" fill="#580AC7"/>
<path d="M32 261.647C32 270.679 24.8366 278 16 278C7.16344 278 0 270.679 0 261.647C0 252.616 7.16344 245.294 16 245.294C24.8366 245.294 32 252.616 32 261.647Z" fill="#580AC7"/>
<path d="M110 16.3529C110 25.3844 102.837 32.7059 94 32.7059C85.1634 32.7059 78 25.3844 78 16.3529C78 7.32146 85.1634 0 94 0C102.837 0 110 7.32146 110 16.3529Z" fill="#580AC7"/>
<path d="M110 65.4117C110 74.4431 102.837 81.7646 94 81.7646C85.1634 81.7646 78 74.4431 78 65.4117C78 56.3802 85.1634 49.0587 94 49.0587C102.837 49.0587 110 56.3802 110 65.4117Z" fill="#580AC7"/>
<path d="M110 114.471C110 123.502 102.837 130.824 94 130.824C85.1634 130.824 78 123.502 78 114.471C78 105.439 85.1634 98.1177 94 98.1177C102.837 98.1177 110 105.439 110 114.471Z" fill="#580AC7"/>
<path d="M110 163.529C110 172.561 102.837 179.882 94 179.882C85.1634 179.882 78 172.561 78 163.529C78 154.498 85.1634 147.176 94 147.176C102.837 147.176 110 154.498 110 163.529Z" fill="#580AC7"/>
<path d="M110 212.588C110 221.62 102.837 228.941 94 228.941C85.1634 228.941 78 221.62 78 212.588C78 203.557 85.1634 196.235 94 196.235C102.837 196.235 110 203.557 110 212.588Z" fill="#580AC7"/>
<path d="M110 261.647C110 270.679 102.837 278 94 278C85.1634 278 78 270.679 78 261.647C78 252.616 85.1634 245.294 94 245.294C102.837 245.294 110 252.616 110 261.647Z" fill="#580AC7"/>
</svg>
